<?xml version="1.0" encoding="utf-8"?>
<!-- Generator: Adobe Illustrator 17.0.0, SVG Export Plug-In . SVG Version: 6.00 Build 0)  -->
<!DOCTYPE svg PUBLIC "-//W3C//DTD SVG 1.1//EN" "http://www.w3.org/Graphics/SVG/1.1/DTD/svg11.dtd">
<svg version="1.1" id="Layer_1" xmlns="http://www.w3.org/2000/svg" xmlns:xlink="http://www.w3.org/1999/xlink" x="0px" y="0px"
	 width="35px" height="35px" viewBox="0 0 35 35" enable-background="new 0 0 35 35" xml:space="preserve">
<g>
	<circle fill="#F4330E" cx="17.5" cy="17.5" r="17.5"/>
	<g>
		<path fill="#F9F9F9" d="M29.743,10.512c0,0.793-0.429,1.436-0.958,1.436H6.215c-0.529,0-0.958-0.643-0.958-1.436l0,0
			c0-0.793,0.429-1.436,0.958-1.436h22.571C29.314,9.075,29.743,9.718,29.743,10.512L29.743,10.512z"/>
		<path fill="#F9F9F9" d="M29.743,17.5c0,0.793-0.429,1.436-0.958,1.436H6.215c-0.529,0-0.958-0.643-0.958-1.436l0,0
			c0-0.793,0.429-1.436,0.958-1.436h22.571C29.314,16.064,29.743,16.707,29.743,17.5L29.743,17.5z"/>
		<path fill="#F9F9F9" d="M29.743,24.488c0,0.793-0.429,1.436-0.958,1.436H6.215c-0.529,0-0.958-0.643-0.958-1.436l0,0
			c0-0.793,0.429-1.436,0.958-1.436h22.571C29.314,23.052,29.743,23.695,29.743,24.488L29.743,24.488z"/>
	</g>
</g>
</svg>
